HIERARCHY
ROOT Hips
{
	OFFSET 0.000000 0.000000 0.000000
	CHANNELS 6 Xposition Yposition Zposition Xrotation Yrotation Zrotation
	JOINT LeftUpLeg_virtual
	{
		OFFSET 0.000000 0.000000 0.000000
		CHANNELS 3 Xrotation Yrotation Zrotation
		JOINT LeftUpLeg
		{
			OFFSET 13.026900 -6.336304 -1.092800
			CHANNELS 3 Xrotation Yrotation Zrotation
			JOINT LeftLeg
			{
				OFFSET 0.524474 -46.096886 9.782700
				CHANNELS 3 Xrotation Yrotation Zrotation
				JOINT LeftFoot
				{
					OFFSET -0.524474 -53.427422 -12.948200
					CHANNELS 3 Xrotation Yrotation Zrotation
					JOINT LeftToeBase
					{
						OFFSET 0.192200 -14.009700 16.364100
						CHANNELS 3 Xrotation Yrotation Zrotation
						JOINT LeftToe_End
						{
							OFFSET -1.784700 -0.561700 9.474800
							CHANNELS 3 Xrotation Yrotation Zrotation
							End Site
							{
								OFFSET 0 0 0
							}
						}
					}
				}
			}
		}
	}
	JOINT RightUpLeg_virtual
	{
		OFFSET 0.000000 0.000000 0.000000
		CHANNELS 3 Xrotation Yrotation Zrotation
		JOINT RightUpLeg
		{
			OFFSET -12.883000 -6.336304 -1.092800
			CHANNELS 3 Xrotation Yrotation Zrotation
			JOINT RightLeg
			{
				OFFSET -0.524587 -46.096825 9.782800
				CHANNELS 3 Xrotation Yrotation Zrotation
				JOINT RightFoot
				{
					OFFSET 0.524587 -53.427383 -12.948300
					CHANNELS 3 Xrotation Yrotation Zrotation
					JOINT RightToeBase
					{
						OFFSET -0.192200 -14.009700 16.364100
						CHANNELS 3 Xrotation Yrotation Zrotation
						JOINT RightToe_End
						{
							OFFSET 1.784700 -0.561700 9.474800
							CHANNELS 3 Xrotation Yrotation Zrotation
							End Site
							{
								OFFSET 0 0 0
							}
						}
					}
				}
			}
		}
	}
	JOINT Spine_virtual
	{
		OFFSET 0.000000 0.000000 0.000000
		CHANNELS 3 Xrotation Yrotation Zrotation
		JOINT Spine
		{
			OFFSET 0.072000 7.257294 -0.789700
			CHANNELS 3 Xrotation Yrotation Zrotation
			JOINT Spine1
			{
				OFFSET 0.000000 12.508769 -0.658067
				CHANNELS 3 Xrotation Yrotation Zrotation
				JOINT Spine1_split
				{
					OFFSET 0.000000 12.508769 -0.658067
					CHANNELS 3 Xrotation Yrotation Zrotation
					JOINT Spine2
					{
						OFFSET 0.000000 12.508769 -0.658067
						CHANNELS 3 Xrotation Yrotation Zrotation
						JOINT Neck_virtual
						{
							OFFSET 0.000000 0.000000 0.000000
							CHANNELS 3 Xrotation Yrotation Zrotation
							JOINT Neck
							{
								OFFSET 0.000000 14.033295 7.520400
								CHANNELS 3 Xrotation Yrotation Zrotation
								JOINT Head
								{
									OFFSET 0.000000 8.198502 5.703100
									CHANNELS 3 Xrotation Yrotation Zrotation
									JOINT HeadTop_End
									{
										OFFSET 0.000000 17.760803 13.332701
										CHANNELS 3 Xrotation Yrotation Zrotation
										End Site
										{
											OFFSET 0 0 0
										}
									}
								}
							}
						}
						JOINT LeftShoulder_virtual
						{
							OFFSET 0.000000 0.000000 0.000000
							CHANNELS 3 Xrotation Yrotation Zrotation
							JOINT LeftShoulder
							{
								OFFSET 6.292450 5.785301 -0.669000
								CHANNELS 3 Xrotation Yrotation Zrotation
								JOINT LeftShoulder_split
								{
									OFFSET 6.292450 5.785301 -0.669000
									CHANNELS 3 Xrotation Yrotation Zrotation
									JOINT LeftArm
									{
										OFFSET 13.907140 -6.093903 1.965100
										CHANNELS 3 Xrotation Yrotation Zrotation
										JOINT LeftForeArm
										{
											OFFSET 34.140198 0.000000 0.000000
											CHANNELS 3 Xrotation Yrotation Zrotation
											JOINT LeftHand
											{
												OFFSET 40.960209 0.000000 0.000000
												CHANNELS 3 Xrotation Yrotation Zrotation
												End Site
												{
													OFFSET 0 0 0
												}
											}
										}
									}
								}
							}
						}
						JOINT RightShoulder_virtual
						{
							OFFSET 0.000000 0.000000 0.000000
							CHANNELS 3 Xrotation Yrotation Zrotation
							JOINT RightShoulder
							{
								OFFSET -6.292450 5.785301 -0.669000
								CHANNELS 3 Xrotation Yrotation Zrotation
								JOINT RightShoulder_split
								{
									OFFSET -6.292450 5.785301 -0.669000
									CHANNELS 3 Xrotation Yrotation Zrotation
									JOINT RightArm
									{
										OFFSET -13.907140 -6.093903 1.965100
										CHANNELS 3 Xrotation Yrotation Zrotation
										JOINT RightForeArm
										{
											OFFSET -34.140198 0.000000 0.000000
											CHANNELS 3 Xrotation Yrotation Zrotation
											JOINT RightHand
											{
												OFFSET -40.960209 0.000000 0.000000
												CHANNELS 3 Xrotation Yrotation Zrotation
												End Site
												{
													OFFSET 0 0 0
												}
											}
										}
									}
								}
							}
						}
					}
				}
			}
		}
	}
}
MOTION
Frames: 8
Frame Time: 0.03333333
6.637864 88.407722 165.244461 0.000000 0.000000 0.000000 5.767488 -24.724175 1.168058 19.315022 29.162504 10.206844 36.393888 12.610855 -4.402659 -25.234561 1.686339 -29.333497 -27.157203 -2.385687 -6.553167 0.000000 0.000000 0.000000 7.251610 -20.014555 0.984374 -67.692994 -4.610725 -8.963058 53.376781 2.045135 -4.255870 9.007958 5.793654 7.182585 -6.074908 3.287020 2.011523 0.000000 0.000000 0.000000 6.164205 -22.683492 3.097617 2.142144 -4.391444 -1.133062 2.957622 -6.742814 0.837788 2.321882 -4.472925 0.554062 0.000000 0.000000 0.000000 3.861050 -6.290012 0.703724 12.791099 1.966596 11.470264 -1.423497 4.594008 -15.488195 0.000000 0.000000 0.000000 4.528470 -7.313739 0.233973 -2.674596 -15.386379 -16.553544 -6.141342 8.344098 -0.536590 -45.034596 -10.694251 -25.246005 -20.436271 -71.500415 9.073886 0.000000 0.000000 0.000000 3.731339 -6.275063 1.547361 -0.336033 -0.828583 -0.893434 -5.227581 -1.573530 -3.621144 -29.469374 42.366509 7.923063 48.141171 31.010531 -20.668047 0.000000 0.000000 0.000000 
5.556427 88.085663 171.324661 0.000000 0.000000 0.000000 9.001966 -28.607894 1.968393 25.343825 29.304500 7.012326 28.160747 14.461752 -2.712068 -20.687308 -3.246009 -29.624559 -36.444178 -1.878588 -5.811274 0.000000 0.000000 0.000000 10.795898 -24.789063 1.799516 -68.563563 -4.536631 -4.490177 53.937519 1.374307 -3.974825 6.507614 6.029813 5.307832 -5.532589 2.444359 2.313250 0.000000 0.000000 0.000000 9.394487 -27.455288 2.873401 2.221263 -7.035988 -0.954943 3.184457 -10.246252 1.913174 1.919581 -2.945185 0.525811 0.000000 0.000000 0.000000 3.998910 -9.631683 2.076291 9.824149 5.141776 13.149297 1.102558 11.122875 -19.634777 0.000000 0.000000 0.000000 4.610603 -10.729666 1.703834 -4.457562 -20.365949 -17.223376 -6.708169 9.124801 -0.286964 -42.564673 -18.938235 -29.967581 -15.167065 -55.609652 10.276991 0.000000 0.000000 0.000000 3.731118 -9.707359 2.888929 -0.049324 -3.287786 5.852905 -4.285378 -1.553790 -3.761951 -19.920754 31.987903 0.184768 38.416553 24.282752 -9.276388 0.000000 0.000000 0.000000 
4.350203 88.138756 177.393021 0.000000 0.000000 0.000000 12.196730 -31.633444 2.558989 27.400187 29.649349 6.805103 23.336263 14.840164 -1.277935 -11.888222 -8.889505 -29.494417 -40.798397 -1.610848 -4.365293 0.000000 0.000000 0.000000 14.149580 -28.009959 2.361137 -68.616661 -4.051030 -0.568934 54.973580 0.618926 -3.799109 3.132580 6.357222 2.648704 -3.299468 1.999675 2.741471 0.000000 0.000000 0.000000 12.270413 -30.884169 2.502051 2.239822 -8.966537 -0.697735 3.636032 -12.751822 2.886150 0.991852 -1.803559 0.514770 0.000000 0.000000 0.000000 4.579465 -11.992248 3.363930 6.245020 7.802216 14.778853 3.518624 16.192941 -22.599091 0.000000 0.000000 0.000000 4.875458 -13.059173 3.038516 -5.507179 -23.969521 -16.232226 -6.823607 8.668042 -0.228545 -41.046104 -27.412443 -35.426542 -12.495379 -40.598617 8.564712 0.000000 0.000000 0.000000 3.851729 -12.207431 3.958711 0.417804 -5.281345 10.217921 -3.115919 -1.019922 -2.927623 -16.883198 23.307380 -1.449870 31.525080 23.663761 -3.480448 0.000000 0.000000 0.000000 
3.270075 88.573860 183.290024 0.000000 0.000000 0.000000 14.691872 -34.655321 2.802807 25.469205 30.673502 9.404528 23.882759 15.438591 -0.946666 -0.383357 -13.382499 -25.999066 -36.363210 -1.431179 -2.815779 0.000000 0.000000 0.000000 16.759599 -30.716993 2.606231 -67.969719 -3.222292 2.395072 56.271541 0.155983 -3.735886 0.401349 7.171298 0.533150 -1.146738 1.956979 2.934973 0.000000 0.000000 0.000000 14.117823 -33.970745 1.851347 2.235973 -10.060256 -0.316342 4.148781 -14.168724 3.564851 0.197998 -1.296191 0.462461 0.000000 0.000000 0.000000 5.336339 -13.307381 4.267747 2.486705 9.940753 16.384548 5.413524 19.975441 -24.327751 0.000000 0.000000 0.000000 5.114540 -14.289195 3.972820 -5.788017 -26.207697 -13.972550 -6.241416 7.388729 -0.531021 -41.948242 -34.670843 -41.982793 -10.786089 -29.330854 5.887562 0.000000 0.000000 0.000000 3.963784 -13.664670 4.591577 0.836392 -6.312110 12.302790 -1.671851 -0.162122 -1.582868 -17.213072 16.854006 -0.303310 25.060806 27.186267 -0.538114 0.000000 0.000000 0.000000 
2.473106 89.240646 188.670853 0.000000 0.000000 0.000000 16.123201 -38.514129 2.864434 18.786306 31.830116 14.851321 30.599879 16.943357 -1.919403 11.357410 -14.657239 -19.143512 -23.626138 -0.878379 -1.782845 0.000000 0.000000 0.000000 18.161997 -33.649805 2.624604 -66.567652 -2.108230 4.240369 56.983613 0.521355 -3.893547 -0.866705 8.639572 0.236329 -0.636110 2.149627 2.707427 0.000000 0.000000 0.000000 14.653537 -37.460036 0.913099 2.297936 -10.340643 0.143206 4.538916 -14.607678 3.826340 -0.048246 -1.244408 0.973550 0.000000 0.000000 0.000000 5.969085 -13.726042 4.644105 -0.988512 11.665847 17.920980 6.627393 22.765091 -24.848780 0.000000 0.000000 0.000000 5.119695 -14.597683 4.292427 -5.487314 -27.173756 -11.211169 -5.034989 5.839566 -1.264854 -45.395100 -39.355697 -49.004678 -9.598492 -22.033031 3.023322 0.000000 0.000000 0.000000 3.976075 -14.135700 4.747377 1.092027 -6.018863 12.499778 -0.380749 0.012793 0.552293 -18.899857 12.432414 1.971697 18.105409 30.683365 1.284707 0.000000 0.000000 0.000000 
1.977958 90.056030 193.519913 0.000000 0.000000 0.000000 16.383699 -42.887308 2.720976 8.779024 30.932499 22.199886 41.603505 18.312599 -3.478890 20.052657 -12.811273 -11.047392 -8.986038 -0.210685 -1.026571 0.000000 0.000000 0.000000 18.231073 -37.291371 2.440947 -63.867753 -0.653182 5.230290 56.439011 1.614150 -4.351736 -1.865700 10.537877 1.742343 -1.381363 2.437425 2.159842 0.000000 0.000000 0.000000 14.032607 -41.281544 -0.173231 2.485781 -10.001322 0.656621 4.678514 -14.285746 3.688148 0.248483 -1.662826 1.364777 0.000000 0.000000 0.000000 6.200327 -13.466882 4.451447 -3.876251 12.953440 19.118202 7.000747 24.668480 -24.249741 0.000000 0.000000 0.000000 4.898885 -14.214635 4.024529 -4.817499 -27.124127 -8.605359 -3.789648 3.940970 -1.858128 -50.077123 -41.131751 -55.054422 -8.833210 -17.766024 0.438665 0.000000 0.000000 0.000000 3.802348 -13.841998 4.490097 1.220720 -4.683609 11.544661 0.838326 -0.683195 2.427305 -20.875536 9.703370 4.391054 10.648221 30.185673 2.622454 0.000000 0.000000 0.000000 
1.580683 90.880653 198.246216 0.000000 0.000000 0.000000 15.593276 -47.324981 2.539070 -1.264643 27.607886 28.746320 53.966049 18.726564 -4.704310 23.273511 -9.775590 -3.376620 0.729944 0.423659 -0.282633 0.000000 0.000000 0.000000 17.154969 -41.346827 2.225715 -59.352281 0.944318 5.569037 54.224257 2.506849 -4.802575 -4.194791 11.938821 3.359616 -2.004149 2.650978 1.588136 0.000000 0.000000 0.000000 12.315663 -45.381040 -1.185220 2.826430 -9.308359 1.148678 4.543680 -13.533810 3.223149 0.932084 -1.619597 1.837493 0.000000 0.000000 0.000000 5.918391 -12.803052 3.792256 -5.802952 13.934452 19.678233 6.730000 25.721693 -22.784229 0.000000 0.000000 0.000000 4.547251 -13.473527 3.339357 -3.932478 -26.331619 -6.303455 -2.659020 2.135360 -2.498912 -54.535024 -41.435049 -58.690873 -8.204700 -15.565622 -1.571229 0.000000 0.000000 0.000000 3.443359 -13.076432 3.944107 1.304408 -2.993683 10.006964 2.214692 -1.663547 3.316058 -23.422114 8.086719 6.156066 3.495850 25.449886 3.100132 0.000000 0.000000 0.000000 
1.102935 91.455544 203.051224 0.000000 0.000000 0.000000 13.879201 -51.313326 2.304191 -10.414082 22.750298 33.353504 65.437010 18.082379 -5.076548 21.259635 -7.766759 3.105538 3.367273 0.912203 0.299157 0.000000 0.000000 0.000000 15.016721 -45.358641 1.920025 -53.184952 2.850453 5.358838 50.846749 2.914164 -5.119382 -8.555068 12.355062 4.358659 -1.696322 2.616205 1.195379 0.000000 0.000000 0.000000 9.871881 -49.073140 -1.896986 3.265554 -8.486086 1.475475 4.237453 -12.581071 2.600944 1.177486 -1.186775 2.079788 0.000000 0.000000 0.000000 5.228675 -11.931887 2.906057 -6.480299 14.492384 19.434134 6.136901 25.921347 -20.679521 0.000000 0.000000 0.000000 4.164589 -12.522026 2.487377 -2.913320 -24.870023 -4.311935 -1.963794 0.063866 -2.606507 -58.453626 -41.830254 -59.526847 -7.601343 -15.182687 -2.932543 0.000000 0.000000 0.000000 2.978827 -12.103482 3.263971 1.362607 -1.905100 7.937680 3.554442 -2.796016 3.380670 -27.669998 7.918909 7.555355 -2.794013 20.371271 2.616794 0.000000 0.000000 0.000000 
